<?xml version="1.0" encoding="UTF-8" standalone="no"?>
<svg
   width="30"
   height="30"
   version="1.1"
   id="svg1"
   sodipodi:docname="alt2.svg"
   inkscape:version="1.4 (86a8ad7, 2024-10-11)"
   inkscape:export-filename="github-mark.svg"
   inkscape:export-xdpi="96"
   inkscape:export-ydpi="96"
   xmlns:inkscape="http://www.inkscape.org/namespaces/inkscape"
   xmlns:sodipodi="http://sodipodi.sourceforge.net/DTD/sodipodi-0.dtd"
   xmlns="http://www.w3.org/2000/svg"
   xmlns:svg="http://www.w3.org/2000/svg">
  <defs
     id="defs1">
    <rect
       x="44.333725"
       y="39.821388"
       width="10.152761"
       height="13.085781"
       id="rect1" />
  </defs>
  <sodipodi:namedview
     id="namedview1"
     bordercolor="#000000"
     borderopacity="0"
     inkscape:showpageshadow="2"
     inkscape:pageopacity="0.0"
     inkscape:pagecheckerboard="0"
     inkscape:deskcolor="#d1d1d1"
     inkscape:zoom="8.8645833"
     inkscape:cx="-8.3478261"
     inkscape:cy="29.837838"
     inkscape:window-width="2400"
     inkscape:window-height="1261"
     inkscape:window-x="-9"
     inkscape:window-y="135"
     inkscape:window-maximized="1"
     inkscape:current-layer="svg1"
     pagecolor="#121212"
     inkscape:export-bgcolor="#ffffff00" />
  <path
     id="path1"
     style="fill:#000000;fill-opacity:1;stroke-width:0.307289"
     d="M 15.039062 0.11328125 C 6.8472448 0.11328125 0.2265625 6.9640451 0.2265625 15.439453 C 0.2265625 22.214299 4.4691256 27.948802 10.355469 29.978516 C 11.091413 30.1311 11.361328 29.647944 11.361328 29.242188 C 11.361328 28.886879 11.335936 27.669351 11.335938 26.400391 C 7.2150149 27.314042 6.3574219 24.574219 6.3574219 24.574219 C 5.6951629 22.797986 4.7128906 22.341797 4.7128906 22.341797 C 3.3641138 21.402924 4.8125 21.402344 4.8125 21.402344 C 6.3086473 21.503868 7.09375 22.974609 7.09375 22.974609 C 8.4179646 25.308873 10.551705 24.650208 11.410156 24.244141 C 11.532662 23.254508 11.924853 22.569985 12.341797 22.189453 C 9.0550628 21.834144 5.5976564 20.513993 5.5976562 14.626953 C 5.5976562 12.952237 6.1850516 11.58124 7.1171875 10.515625 C 6.9701197 10.135093 6.4559949 8.5630382 7.265625 6.4570312 C 7.265625 6.4570312 8.5155744 6.050031 11.335938 8.0292969 A 14.242816 14.626516 0 0 1 15.039062 7.5214844 C 16.289895 7.5214844 17.564734 7.6995223 18.742188 8.0292969 C 21.562852 6.050031 22.814453 6.4570314 22.814453 6.4570312 C 23.624083 8.5630382 23.108003 10.135093 22.960938 10.515625 C 23.917634 11.58124 24.482422 12.952237 24.482422 14.626953 C 24.482422 20.513993 21.024187 21.808609 17.712891 22.189453 C 18.252644 22.671501 18.71875 23.58479 18.71875 25.03125 C 18.71875 27.086498 18.693359 28.734915 18.693359 29.242188 C 18.693359 29.648256 18.963578 30.130791 19.699219 29.978516 C 25.585564 27.94818 29.830078 22.214299 29.830078 15.439453 C 29.854333 6.9640451 23.20632 0.11328125 15.039062 0.11328125 z M 14.955078 10.158203 C 14.438667 10.158203 13.903238 10.223534 13.349609 10.355469 C 12.800632 10.487403 12.361566 10.633737 12.03125 10.792969 L 12.03125 12.226562 L 12.101562 12.226562 C 12.57145 11.926298 13.051773 11.702224 13.544922 11.556641 C 14.03807 11.411058 14.496558 11.339844 14.919922 11.339844 C 15.557293 11.339844 16.052673 11.488799 16.40625 11.789062 C 16.764481 12.084779 16.943359 12.497652 16.943359 13.025391 C 16.943359 13.603172 16.779535 14.142137 16.449219 14.642578 C 16.118902 15.13847 15.506532 15.808095 14.613281 16.654297 C 14.189918 17.059198 13.731429 17.467501 13.238281 17.876953 L 11.773438 19.105469 L 11.773438 20.53125 L 18.806641 20.53125 L 18.806641 19.363281 L 13.216797 19.363281 C 13.67738 18.981126 14.172757 18.568895 14.703125 18.123047 C 15.233493 17.67265 15.748293 17.208163 16.246094 16.730469 C 16.595019 16.398358 16.890891 16.095233 17.132812 15.822266 C 17.379387 15.549298 17.593949 15.272301 17.775391 14.990234 C 17.970789 14.689969 18.117144 14.373126 18.214844 14.041016 C 18.317196 13.704355 18.367188 13.343735 18.367188 12.957031 C 18.367188 12.097182 18.065743 11.416457 17.460938 10.916016 C 16.856133 10.411026 16.020466 10.158203 14.955078 10.158203 z " />
</svg>
