<?xml version="1.0" encoding="UTF-8" standalone="no"?>
<svg
   width="30"
   height="30"
   version="1.1"
   id="svg1"
   xmlns="http://www.w3.org/2000/svg"
   xmlns:svg="http://www.w3.org/2000/svg">
  <defs
     id="defs1" />
  <path
     fill-rule="evenodd"
     clip-rule="evenodd"
     d="m 15.039723,0.11280858 c -8.1918182,0 -14.81410636,6.85082732 -14.81410636,15.32623542 0,6.774846 4.24312846,12.509609 10.12947136,14.539323 0.735944,0.152584 1.005518,-0.329773 1.005518,-0.735529 0,-0.355309 -0.02426,-1.573199 -0.02426,-2.842159 C 7.2154239,27.31433 6.3572765,24.573688 6.3572765,24.573688 5.6950175,22.797455 4.7137581,22.34094 4.7137581,22.34094 3.3649813,21.402067 4.812005,21.402067 4.812005,21.402067 c 1.4961473,0.101524 2.2812161,1.573197 2.2812161,1.573197 1.3242146,2.334264 3.4580599,1.674716 4.3165109,1.268649 0.122506,-0.989633 0.515191,-1.674716 0.932135,-2.055248 -3.286734,-0.355309 -6.7447937,-1.674716 -6.7447937,-7.561756 0,-1.674716 0.5882703,-3.044881 1.5204062,-4.110496 -0.1470678,-0.380532 -0.6622594,-1.9540426 0.1473707,-4.0600495 0,0 1.2508332,-0.4060668 4.0711958,1.5731991 a 14.242816,14.626516 0 0 1 3.703679,-0.5075835 c 1.250832,0 2.525923,0.1778089 3.703375,0.5075835 2.820664,-1.9792659 4.071497,-1.5731991 4.071497,-1.5731991 0.80963,2.1060069 0.294135,3.6795175 0.147068,4.0600495 0.956697,1.065615 1.520709,2.43578 1.520709,4.110496 0,5.88704 -3.458059,7.180912 -6.769355,7.561756 0.539753,0.482048 1.005518,1.395388 1.005518,2.841848 0,2.055248 -0.02426,3.704741 -0.02426,4.212012 0,0.406069 0.269877,0.888428 1.005518,0.736153 C 25.58614,27.948342 29.829269,22.21389 29.829269,15.439044 29.853524,6.9636359 23.206982,0.11280858 15.039726,0.11280858 Z"
     fill="#24292f"
     id="path1"
     style="fill:#000000;fill-opacity:1;stroke-width:0.307289" />
  <text
     xml:space="preserve"
     style="font-size:13.9837px;text-align:start;writing-mode:lr-tb;direction:ltr;text-anchor:start;fill:#000000;fill-opacity:1;stroke-width:1.1653"
     x="11.09709"
     y="18.647873"
     id="text2"
     transform="matrix(0.93926717,-0.02114265,0.02379001,1.0641243,0,0)"><tspan
       id="tspan2"
       x="11.09709"
       y="18.647873"
       style="fill:#000000;fill-opacity:1;stroke-width:1.1653">2</tspan></text>
</svg>
