<?xml version="1.0" encoding="UTF-8" standalone="no"?>
<svg
   width="30"
   height="30"
   version="1.1"
   id="svg1"
   sodipodi:docname="alt.svg"
   inkscape:version="1.4 (86a8ad7, 2024-10-11)"
   inkscape:export-filename="github-mark.svg"
   inkscape:export-xdpi="96"
   inkscape:export-ydpi="96"
   xmlns:inkscape="http://www.inkscape.org/namespaces/inkscape"
   xmlns:sodipodi="http://sodipodi.sourceforge.net/DTD/sodipodi-0.dtd"
   xmlns="http://www.w3.org/2000/svg"
   xmlns:svg="http://www.w3.org/2000/svg">
  <defs
     id="defs1">
    <rect
       x="44.333725"
       y="39.821388"
       width="10.152761"
       height="13.085781"
       id="rect1" />
  </defs>
  <sodipodi:namedview
     id="namedview1"
     bordercolor="#000000"
     borderopacity="0"
     inkscape:showpageshadow="2"
     inkscape:pageopacity="0.0"
     inkscape:pagecheckerboard="0"
     inkscape:deskcolor="#d1d1d1"
     inkscape:zoom="8.8645833"
     inkscape:cx="-8.3478261"
     inkscape:cy="29.837838"
     inkscape:window-width="2400"
     inkscape:window-height="1261"
     inkscape:window-x="-9"
     inkscape:window-y="135"
     inkscape:window-maximized="1"
     inkscape:current-layer="svg1"
     pagecolor="#121212"
     inkscape:export-bgcolor="#ffffff00" />
  <path
     id="path1"
     style="fill:#000000;fill-opacity:1;stroke-width:0.307289"
     d="M 15.039062 0.11328125 C 6.8472448 0.11328125 0.2265625 6.9640451 0.2265625 15.439453 C 0.2265625 22.214299 4.4691256 27.948802 10.355469 29.978516 C 11.091413 30.1311 11.361328 29.647944 11.361328 29.242188 C 11.361328 28.886879 11.335936 27.669351 11.335938 26.400391 C 7.2150149 27.314042 6.3574219 24.574219 6.3574219 24.574219 C 5.6951629 22.797986 4.7128906 22.341797 4.7128906 22.341797 C 3.3641138 21.402924 4.8125 21.402344 4.8125 21.402344 C 6.3086473 21.503868 7.09375 22.974609 7.09375 22.974609 C 8.4179646 25.308873 10.551705 24.650208 11.410156 24.244141 C 11.532662 23.254508 11.924853 22.569985 12.341797 22.189453 C 10.022354 21.938712 7.620616 21.204227 6.40625 18.726562 L 7.2265625 18.726562 L 7.9414062 17.111328 L 11.089844 17.111328 L 11.802734 18.726562 L 12.835938 18.726562 L 10.185547 12.935547 L 8.8945312 12.935547 L 6.3222656 18.554688 C 5.8656002 17.546481 5.5976563 16.263962 5.5976562 14.626953 C 5.5976562 12.952237 6.1850516 11.58124 7.1171875 10.515625 C 6.9701197 10.135093 6.4559949 8.5630382 7.265625 6.4570312 C 7.265625 6.4570312 8.5155744 6.050031 11.335938 8.0292969 A 14.242816 14.626516 0 0 1 15.039062 7.5214844 C 16.289895 7.5214844 17.564734 7.6995223 18.742188 8.0292969 C 21.562852 6.050031 22.814453 6.4570314 22.814453 6.4570312 C 23.624083 8.5630382 23.108003 10.135093 22.960938 10.515625 C 23.917634 11.58124 24.482422 12.952237 24.482422 14.626953 C 24.482422 20.513993 21.024187 21.808609 17.712891 22.189453 C 18.252644 22.671501 18.71875 23.58479 18.71875 25.03125 C 18.71875 27.086498 18.693359 28.734915 18.693359 29.242188 C 18.693359 29.648256 18.963578 30.130791 19.699219 29.978516 C 25.585564 27.94818 29.830078 22.214299 29.830078 15.439453 C 29.854333 6.9640451 23.20632 0.11328125 15.039062 0.11328125 z M 13.939453 12.935547 L 13.939453 18.726562 L 18.546875 18.726562 L 18.546875 18.041016 L 14.908203 18.041016 L 14.908203 12.935547 L 13.939453 12.935547 z M 17.705078 12.935547 L 17.705078 13.619141 L 20.306641 13.619141 L 20.306641 18.726562 L 21.275391 18.726562 L 21.275391 13.619141 L 23.875 13.619141 L 23.875 12.935547 L 17.705078 12.935547 z M 9.515625 13.607422 L 10.791016 16.451172 L 8.234375 16.451172 L 9.515625 13.607422 z " />
</svg>
